<svg width="36" height="36" viewBox="0 0 36 36" fill="none" xmlns="http://www.w3.org/2000/svg">
<mask id="mask0_131_599" style="mask-type:alpha" maskUnits="userSpaceOnUse" x="0" y="0" width="36" height="36">
<rect width="36" height="36" fill="#D9D9D9"/>
</mask>
<g mask="url(#mask0_131_599)">
<path d="M2.18362 18L13.7565 29.5732C13.9778 29.7943 14.087 30.0586 14.0842 30.3664C14.0812 30.6741 13.9691 30.9385 13.7479 31.1595C13.5269 31.3808 13.2625 31.4914 12.9548 31.4914C12.647 31.4914 12.3826 31.3808 12.1616 31.1595L0.697874 19.7048C0.455624 19.4625 0.27875 19.1924 0.16725 18.8944C0.0557497 18.5961 0 18.298 0 18C0 17.702 0.0557497 17.4039 0.16725 17.1056C0.27875 16.8076 0.455624 16.5375 0.697874 16.2952L12.1616 4.83187C12.3826 4.61062 12.6485 4.5015 12.9592 4.5045C13.2697 4.50725 13.5355 4.61925 13.7565 4.8405C13.9778 5.0615 14.0884 5.32587 14.0884 5.63363C14.0884 5.94138 13.9778 6.20575 13.7565 6.42675L2.18362 18Z" fill="#FFFEFB"/>
</g>
</svg>
