<svg width="23" height="23" viewBox="0 0 23 23" fill="none" xmlns="http://www.w3.org/2000/svg">
<circle cx="11.5" cy="11.5" r="11.5" fill="#FFFEFB"/>
<path d="M12.6294 13.5371C12.4312 13.3389 12.4312 13.0176 12.6294 12.8194C12.8276 12.6212 13.1489 12.6212 13.3471 12.8194C13.5453 13.0176 13.5453 13.3389 13.3471 13.5371C13.1489 13.7353 12.8276 13.7353 12.6294 13.5371Z" fill="#143A9B"/>
<path d="M13.7778 13.9678C14.1367 13.6089 15.744 14.642 16.6488 15.5468C17.5536 16.4516 18.5867 18.0589 18.2278 18.4178C17.869 18.7767 16.2616 17.7436 15.3568 16.8388C14.452 15.934 13.4189 14.3266 13.7778 13.9678Z" fill="#143A9B"/>
<path d="M10.2444 13.5371C10.4426 13.3389 10.4426 13.0176 10.2444 12.8194C10.0462 12.6212 9.72486 12.6212 9.52665 12.8194C9.32845 13.0176 9.32845 13.3389 9.52665 13.5371C9.72486 13.7353 10.0462 13.7353 10.2444 13.5371Z" fill="#143A9B"/>
<path d="M9.096 13.9678C8.73713 13.6089 7.1298 14.642 6.225 15.5468C5.32019 16.4516 4.28707 18.0589 4.64595 18.4178C5.00482 18.7767 6.61214 17.7436 7.51695 16.8388C8.42176 15.934 9.45488 14.3266 9.096 13.9678Z" fill="#143A9B"/>
<path d="M10.2444 9.52686C10.4426 9.72506 10.4426 10.0464 10.2444 10.2446C10.0462 10.4428 9.72486 10.4428 9.52665 10.2446C9.32845 10.0464 9.32845 9.72506 9.52665 9.52686C9.72486 9.32866 10.0462 9.32866 10.2444 9.52686Z" fill="#143A9B"/>
<path d="M9.096 9.09621C8.73713 9.45508 7.1298 8.42196 6.225 7.51715C5.32019 6.61235 4.28707 5.00502 4.64595 4.64615C5.00482 4.28727 6.61214 5.3204 7.51695 6.2252C8.42176 7.13001 9.45488 8.73733 9.096 9.09621Z" fill="#143A9B"/>
<path d="M12.6294 9.52686C12.4312 9.72506 12.4312 10.0464 12.6294 10.2446C12.8276 10.4428 13.1489 10.4428 13.3471 10.2446C13.5453 10.0464 13.5453 9.72506 13.3471 9.52686C13.1489 9.32866 12.8276 9.32866 12.6294 9.52686Z" fill="#143A9B"/>
<path d="M13.7778 9.09621C14.1367 9.45508 15.744 8.42196 16.6488 7.51715C17.5536 6.61235 18.5867 5.00502 18.2278 4.64615C17.869 4.28727 16.2616 5.3204 15.3568 6.2252C14.452 7.13001 13.4189 8.73733 13.7778 9.09621Z" fill="#143A9B"/>
</svg>
