<svg width="30" height="30" viewBox="0 0 30 30" fill="none" xmlns="http://www.w3.org/2000/svg">
<mask id="mask0_110_2639" style="mask-type:alpha" maskUnits="userSpaceOnUse" x="0" y="0" width="30" height="30">
<rect width="30" height="30" fill="#D9D9D9"/>
</mask>
<g mask="url(#mask0_110_2639)">
<path d="M7.74531 21.8556C8.80781 21.0912 9.93521 20.4868 11.1275 20.0422C12.3198 19.5974 13.6106 19.375 15 19.375C16.3894 19.375 17.6802 19.5974 18.8725 20.0422C20.0648 20.4868 21.1922 21.0912 22.2547 21.8556C23.0801 21.0015 23.744 19.9927 24.2463 18.8294C24.7488 17.6658 25 16.3894 25 15C25 12.2292 24.026 9.86979 22.0781 7.92188C20.1302 5.97396 17.7708 5 15 5C12.2292 5 9.86979 5.97396 7.92188 7.92188C5.97396 9.86979 5 12.2292 5 15C5 16.3894 5.25125 17.6658 5.75375 18.8294C6.25604 19.9927 6.9199 21.0015 7.74531 21.8556ZM15.0006 15.625C13.9473 15.625 13.0589 15.2634 12.3353 14.5403C11.6118 13.8172 11.25 12.929 11.25 11.8756C11.25 10.8223 11.6116 9.93385 12.3347 9.21031C13.0578 8.48677 13.946 8.125 14.9994 8.125C16.0527 8.125 16.9411 8.48656 17.6647 9.20969C18.3882 9.93281 18.75 10.821 18.75 11.8744C18.75 12.9277 18.3884 13.8161 17.6653 14.5397C16.9422 15.2632 16.054 15.625 15.0006 15.625ZM15 26.25C13.431 26.25 11.9623 25.9579 10.5938 25.3738C9.22521 24.7896 8.03448 23.9911 7.02156 22.9784C6.00885 21.9655 5.21042 20.7748 4.62625 19.4063C4.04208 18.0377 3.75 16.569 3.75 15C3.75 13.431 4.04208 11.9623 4.62625 10.5938C5.21042 9.22521 6.00885 8.03448 7.02156 7.02156C8.03448 6.00885 9.22521 5.21042 10.5938 4.62625C11.9623 4.04208 13.431 3.75 15 3.75C16.569 3.75 18.0377 4.04208 19.4063 4.62625C20.7748 5.21042 21.9655 6.00885 22.9784 7.02156C23.9911 8.03448 24.7896 9.22521 25.3738 10.5938C25.9579 11.9623 26.25 13.431 26.25 15C26.25 16.569 25.9579 18.0377 25.3738 19.4063C24.7896 20.7748 23.9911 21.9655 22.9784 22.9784C21.9655 23.9911 20.7748 24.7896 19.4063 25.3738C18.0377 25.9579 16.569 26.25 15 26.25ZM15 25C16.1523 25 17.2861 24.7984 18.4016 24.3953C19.5168 23.9924 20.4806 23.4407 21.2931 22.7403C20.4806 22.088 19.5407 21.5724 18.4734 21.1934C17.4061 20.8145 16.2483 20.625 15 20.625C13.7517 20.625 12.5898 20.8105 11.5144 21.1816C10.4392 21.5526 9.50333 22.0722 8.70687 22.7403C9.51937 23.4407 10.4832 23.9924 11.5984 24.3953C12.7139 24.7984 13.8477 25 15 25ZM15 14.375C15.7019 14.375 16.2941 14.1339 16.7766 13.6516C17.2589 13.1691 17.5 12.5769 17.5 11.875C17.5 11.1731 17.2589 10.5809 16.7766 10.0984C16.2941 9.61615 15.7019 9.375 15 9.375C14.2981 9.375 13.7059 9.61615 13.2234 10.0984C12.7411 10.5809 12.5 11.1731 12.5 11.875C12.5 12.5769 12.7411 13.1691 13.2234 13.6516C13.7059 14.1339 14.2981 14.375 15 14.375Z" fill="#818181"/>
</g>
</svg>
