<svg width="30" height="30" viewBox="0 0 30 30" fill="none" xmlns="http://www.w3.org/2000/svg">
<mask id="mask0_110_2669" style="mask-type:alpha" maskUnits="userSpaceOnUse" x="0" y="0" width="30" height="30">
<rect width="30" height="30" fill="#D9D9D9"/>
</mask>
<g mask="url(#mask0_110_2669)">
<path d="M14.0625 21.5384C11.9135 21.5384 10.0742 20.8177 8.54438 19.3763C7.01479 17.9348 6.25 16.1555 6.25 14.0384V6.25C6.25 5.915 6.37458 5.62292 6.62375 5.37375C6.87292 5.12458 7.165 5 7.5 5H22.8125C23.7644 5 24.5753 5.31896 25.2453 5.95687C25.9151 6.59458 26.25 7.38136 26.25 8.31719C26.25 9.30115 25.9191 10.1401 25.2572 10.8341C24.5953 11.528 23.7804 11.875 22.8125 11.875H21.6347V14.0384C21.6347 16.1234 20.8979 17.8947 19.4244 19.3522C17.9508 20.8097 16.1635 21.5384 14.0625 21.5384ZM7.5 10.625H20.3847V6.25H7.5V10.625ZM21.6347 10.625H22.8125C23.4296 10.625 23.9484 10.3986 24.3691 9.94594C24.7897 9.49323 25 8.95031 25 8.31719C25 7.7324 24.7817 7.24167 24.345 6.845C23.9083 6.44833 23.3975 6.25 22.8125 6.25H21.6347V10.625ZM6.875 25C6.69708 25 6.54844 24.9403 6.42906 24.8209C6.30969 24.7016 6.25 24.5529 6.25 24.375C6.25 24.1971 6.30969 24.0484 6.42906 23.9291C6.54844 23.8097 6.69708 23.75 6.875 23.75H23.125C23.3029 23.75 23.4516 23.8097 23.5709 23.9291C23.6903 24.0484 23.75 24.1971 23.75 24.375C23.75 24.5529 23.6903 24.7016 23.5709 24.8209C23.4516 24.9403 23.3029 25 23.125 25H6.875Z" fill="#143A9B"/>
</g>
</svg>
