<svg width="30" height="30" viewBox="0 0 30 30" fill="none" xmlns="http://www.w3.org/2000/svg">
<mask id="mask0_110_2645" style="mask-type:alpha" maskUnits="userSpaceOnUse" x="0" y="0" width="30" height="30">
<rect width="30" height="30" fill="#D9D9D9"/>
</mask>
<g mask="url(#mask0_110_2645)">
<path d="M14.0625 21.5384C11.9135 21.5384 10.0742 20.8177 8.54438 19.3763C7.01479 17.9348 6.25 16.1555 6.25 14.0384V6.25C6.25 5.915 6.37458 5.62292 6.62375 5.37375C6.87292 5.12458 7.165 5 7.5 5H22.8125C23.7619 5 24.5722 5.31896 25.2434 5.95687C25.9145 6.59458 26.25 7.38136 26.25 8.31719C26.25 9.2999 25.9191 10.1385 25.2572 10.8331C24.5953 11.5277 23.7804 11.875 22.8125 11.875H21.6347V14.0384C21.6347 16.1278 20.8979 17.9001 19.4244 19.3553C17.9508 20.8107 16.1635 21.5384 14.0625 21.5384ZM7.5 10.625H20.3847V6.25H7.5V10.625ZM14.0625 20.2884C15.8238 20.2884 17.3177 19.6831 18.5444 18.4725C19.7712 17.2617 20.3847 15.7836 20.3847 14.0384V11.875H7.5V14.0384C7.5 15.7997 8.14542 17.2817 9.43625 18.4844C10.7271 19.6871 12.2692 20.2884 14.0625 20.2884ZM21.6347 10.625H22.8125C23.4296 10.625 23.9484 10.4006 24.3691 9.95188C24.7897 9.50313 25 8.95823 25 8.31719C25 7.7324 24.7817 7.24167 24.345 6.845C23.9083 6.44833 23.3975 6.25 22.8125 6.25H21.6347V10.625ZM6.875 25C6.69792 25 6.54948 24.94 6.42969 24.82C6.3099 24.7 6.25 24.5514 6.25 24.3741C6.25 24.1968 6.3099 24.0484 6.42969 23.9291C6.54948 23.8097 6.69792 23.75 6.875 23.75H23.125C23.3021 23.75 23.4505 23.81 23.5703 23.93C23.6901 24.05 23.75 24.1986 23.75 24.3759C23.75 24.5532 23.6901 24.7016 23.5703 24.8209C23.4505 24.9403 23.3021 25 23.125 25H6.875Z" fill="#818181"/>
</g>
</svg>
