<svg width="30" height="30" viewBox="0 0 30 30" fill="none" xmlns="http://www.w3.org/2000/svg">
<mask id="mask0_153_6631" style="mask-type:alpha" maskUnits="userSpaceOnUse" x="0" y="0" width="30" height="30">
<rect width="30" height="30" fill="#D9D9D9"/>
</mask>
<g mask="url(#mask0_153_6631)">
<path d="M7.5 26.25C6.79479 26.25 6.20188 26.0096 5.72125 25.5287C5.24042 25.0481 5 24.4552 5 23.75V22.2597C5 21.9695 5.09573 21.7286 5.28719 21.5372C5.47865 21.3457 5.71948 21.25 6.00969 21.25H8.75V4.71623C8.75 4.60248 8.7925 4.52759 8.8775 4.49155C8.96229 4.4555 9.04875 4.46551 9.13688 4.52155L10.0672 5.13936C10.1603 5.20019 10.2501 5.23061 10.3366 5.23061C10.423 5.23061 10.5127 5.20019 10.6056 5.13936L11.7019 4.4278C11.7948 4.36696 11.8846 4.33655 11.9712 4.33655C12.0577 4.33655 12.1474 4.36696 12.2403 4.4278L13.3366 5.13936C13.4295 5.20019 13.5192 5.23061 13.6056 5.23061C13.6923 5.23061 13.7821 5.20019 13.875 5.13936L14.9712 4.4278C15.0642 4.36696 15.1539 4.33655 15.2403 4.33655C15.327 4.33655 15.4168 4.36696 15.5097 4.4278L16.6056 5.13936C16.6988 5.20019 16.7885 5.23061 16.875 5.23061C16.9615 5.23061 17.0512 5.20019 17.1444 5.13936L18.2403 4.4278C18.3332 4.36696 18.423 4.33655 18.5097 4.33655C18.5961 4.33655 18.6858 4.36696 18.7787 4.4278L19.875 5.13936C19.9679 5.20019 20.0577 5.23061 20.1444 5.23061C20.2308 5.23061 20.3205 5.20019 20.4134 5.13936L21.5097 4.4278C21.6026 4.36696 21.6923 4.33655 21.7787 4.33655C21.8654 4.33655 21.9552 4.36696 22.0481 4.4278L23.1444 5.13936C23.2373 5.20019 23.327 5.23061 23.4134 5.23061C23.4999 5.23061 23.5897 5.20019 23.6828 5.13936L24.6131 4.52155C24.7013 4.46551 24.7877 4.4555 24.8725 4.49155C24.9575 4.52759 25 4.60248 25 4.71623V23.75C25 24.4552 24.7596 25.0481 24.2787 25.5287C23.7981 26.0096 23.2052 26.25 22.5 26.25H7.5ZM22.5 25C22.8542 25 23.151 24.8802 23.3906 24.6406C23.6302 24.401 23.75 24.1042 23.75 23.75V6.24998H10V21.25H20.2403C20.5305 21.25 20.7714 21.3457 20.9628 21.5372C21.1543 21.7286 21.25 21.9695 21.25 22.2597V23.75C21.25 24.1042 21.3698 24.401 21.6094 24.6406C21.849 24.8802 22.1458 25 22.5 25ZM12.3556 9.37499H17.7884C17.9664 9.37499 18.115 9.43467 18.2344 9.55405C18.3538 9.67342 18.4134 9.82207 18.4134 9.99999C18.4134 10.1779 18.3538 10.3265 18.2344 10.4459C18.115 10.5653 17.9664 10.625 17.7884 10.625H12.3556C12.1779 10.625 12.0294 10.5653 11.91 10.4459C11.7904 10.3265 11.7306 10.1779 11.7306 9.99999C11.7306 9.82207 11.7904 9.67342 11.91 9.55405C12.0294 9.43467 12.1779 9.37499 12.3556 9.37499ZM12.3556 13.125H17.7884C17.9664 13.125 18.115 13.1847 18.2344 13.304C18.3538 13.4234 18.4134 13.5721 18.4134 13.75C18.4134 13.9279 18.3538 14.0765 18.2344 14.1959C18.115 14.3153 17.9664 14.375 17.7884 14.375H12.3556C12.1779 14.375 12.0294 14.3153 11.91 14.1959C11.7904 14.0765 11.7306 13.9279 11.7306 13.75C11.7306 13.5721 11.7904 13.4234 11.91 13.304C12.0294 13.1847 12.1779 13.125 12.3556 13.125ZM21.1056 10.9615C20.8477 10.9615 20.623 10.8658 20.4316 10.6744C20.2401 10.4827 20.1444 10.2579 20.1444 9.99999C20.1444 9.74207 20.2401 9.51728 20.4316 9.32561C20.623 9.13415 20.8477 9.03842 21.1056 9.03842C21.3638 9.03842 21.5885 9.13415 21.78 9.32561C21.9715 9.51728 22.0672 9.74207 22.0672 9.99999C22.0672 10.2579 21.9715 10.4827 21.78 10.6744C21.5885 10.8658 21.3638 10.9615 21.1056 10.9615ZM21.1056 14.7115C20.8477 14.7115 20.623 14.6158 20.4316 14.4244C20.2401 14.2327 20.1444 14.0079 20.1444 13.75C20.1444 13.4921 20.2401 13.2673 20.4316 13.0756C20.623 12.8842 20.8477 12.7884 21.1056 12.7884C21.3638 12.7884 21.5885 12.8842 21.78 13.0756C21.9715 13.2673 22.0672 13.4921 22.0672 13.75C22.0672 14.0079 21.9715 14.2327 21.78 14.4244C21.5885 14.6158 21.3638 14.7115 21.1056 14.7115ZM7.5 25H20V22.5H6.25V23.75C6.25 24.1042 6.36979 24.401 6.60938 24.6406C6.84896 24.8802 7.14583 25 7.5 25Z" fill="#818181"/>
</g>
</svg>
