<svg width="30" height="30" viewBox="0 0 30 30" fill="none" xmlns="http://www.w3.org/2000/svg">
<mask id="mask0_110_2655" style="mask-type:alpha" maskUnits="userSpaceOnUse" x="0" y="0" width="30" height="30">
<rect width="30" height="30" fill="#D9D9D9"/>
</mask>
<g mask="url(#mask0_110_2655)">
<path d="M23.7018 19.1828C23.8237 19.0609 23.9684 19 24.1359 19C24.3032 19 24.4478 19.0609 24.5696 19.1828L26.5625 21.1828C26.6843 21.3103 26.7453 21.4591 26.7453 21.6293C26.7453 21.7996 26.6843 21.9455 26.5625 22.0672C26.4406 22.189 26.2946 22.25 26.1246 22.25C25.9544 22.25 25.8055 22.189 25.6778 22.0672L23.6778 20.0743C23.5561 19.9527 23.4992 19.8041 23.5071 19.6287C23.5153 19.4531 23.5802 19.3044 23.7018 19.1828ZM24.5671 4.6684C24.689 4.79361 24.75 4.94226 24.75 5.11434C24.75 5.28642 24.689 5.4334 24.5671 5.55528L22.5743 7.54809C22.4527 7.66976 22.3081 7.73059 22.1406 7.73059C21.9731 7.73059 21.8285 7.66809 21.7068 7.54309C21.5849 7.41788 21.524 7.26924 21.524 7.09715C21.524 6.92507 21.5849 6.77809 21.7068 6.65622L23.6828 4.6634C23.8103 4.54153 23.9591 4.48059 24.1293 4.48059C24.2995 4.48059 24.4455 4.5432 24.5671 4.6684ZM5.43776 4.68747C5.56297 4.56559 5.71162 4.50465 5.8837 4.50465C6.05578 4.50465 6.20266 4.56559 6.32433 4.68747L8.31714 6.6634C8.43901 6.79111 8.49995 6.93997 8.49995 7.10997C8.49995 7.28017 8.43735 7.42621 8.31214 7.54809C8.18693 7.66976 8.03828 7.73059 7.8662 7.73059C7.69412 7.73059 7.54724 7.66976 7.42558 7.54809L5.43276 5.55528C5.31089 5.4334 5.24995 5.28872 5.24995 5.12122C5.24995 4.95392 5.31256 4.80934 5.43776 4.68747ZM6.29808 19.2068C6.41974 19.3285 6.48058 19.4731 6.48058 19.6406C6.48058 19.8081 6.41974 19.9527 6.29808 20.0743L4.30526 22.0672C4.18339 22.189 4.0387 22.25 3.8712 22.25C3.70391 22.25 3.55933 22.1874 3.43745 22.0622C3.31558 21.9369 3.25464 21.7883 3.25464 21.6162C3.25464 21.4441 3.31558 21.2973 3.43745 21.1756L5.41339 19.1828C5.53526 19.0609 5.68266 19.0039 5.85558 19.0118C6.0287 19.02 6.1762 19.085 6.29808 19.2068ZM9.95683 22.3534L15 19.3293L20.0671 22.4087L18.7475 16.6828L23.1778 12.8653L17.3412 12.339L15 6.93497L12.6828 12.3078L6.8462 12.81L11.2765 16.6828L9.95683 22.3534ZM15 20.8243L9.35558 24.214C9.22266 24.2797 9.09933 24.306 8.98558 24.2931C8.87183 24.2804 8.7612 24.2412 8.6537 24.1756C8.54641 24.1098 8.46474 24.0156 8.4087 23.8931C8.35245 23.7704 8.34766 23.6378 8.39433 23.4953L9.88933 17.1562L4.91089 12.8509C4.79881 12.7536 4.7287 12.6428 4.70058 12.5184C4.67266 12.394 4.68433 12.2733 4.73558 12.1562C4.78683 12.0391 4.85516 11.9428 4.94058 11.8672C5.0262 11.7915 5.1437 11.7429 5.29308 11.7212L11.8365 11.1659L14.3965 5.14653C14.4526 5.00882 14.5339 4.90945 14.6406 4.8484C14.7472 4.78757 14.867 4.75715 15 4.75715C15.1329 4.75715 15.2527 4.78757 15.3593 4.8484C15.466 4.90945 15.5473 5.00882 15.6034 5.14653L18.1875 11.1659L24.7306 11.7212C24.8837 11.7427 25.004 11.791 25.0915 11.8662C25.179 11.9414 25.2446 12.0381 25.2884 12.1562C25.3396 12.2733 25.3513 12.394 25.3234 12.5184C25.2953 12.6428 25.2252 12.7536 25.1131 12.8509L20.1346 17.1562L21.6296 23.5193C21.6761 23.6618 21.6713 23.7904 21.6153 23.905C21.5592 24.0196 21.4776 24.1098 21.3703 24.1756C21.2628 24.2412 21.1521 24.2804 21.0384 24.2931C20.9246 24.306 20.8012 24.2797 20.6681 24.214L15 20.8243Z" fill="#818181"/>
</g>
</svg>
