<svg width="269" height="108" viewBox="0 0 269 108" fill="none" xmlns="http://www.w3.org/2000/svg">
<path d="M36.2791 87.7952H38.8686V98.8506H42.9721V101.082H36.2791V87.7952ZM47.1508 87.7952H49.7403V101.082H47.1508V87.7952ZM62.334 90.0262H59.3461V101.082H56.7565V90.0262H53.7686V87.7952H62.334V90.0262ZM74.334 90.0262H71.3461V101.082H68.7565V90.0262H65.7686V87.7952H74.334V90.0262ZM78.3654 87.7952H80.9549V98.8506H85.0583V101.082H78.3654V87.7952ZM96.6073 87.7952V90.0262H91.8266V92.9942H96.4081V95.2252H91.8266V98.8506H96.6073V101.082H89.2371V87.7952H96.6073ZM108.549 87.7952H111.138V98.8506H115.242V101.082H108.549V87.7952ZM118.993 87.7952H121.582V96.1415C121.582 97.1574 121.921 97.7749 122.22 98.1136C122.598 98.5717 123.295 99.0299 124.331 99.0299C125.367 99.0299 126.064 98.5717 126.443 98.1136C126.741 97.7749 127.08 97.1574 127.08 96.1415V87.7952H129.67V95.9224C129.67 97.1773 129.47 98.4522 128.674 99.4681C127.717 100.723 126.044 101.38 124.331 101.38C122.618 101.38 120.945 100.723 119.989 99.4681C119.192 98.4522 118.993 97.1773 118.993 95.9224V87.7952ZM137.687 101.082H135.097V87.7952H136.89L144.977 96.6594V87.7952H147.567V101.082H145.774L137.687 92.1975V101.082ZM162.632 97.5757V100.604C161.836 101.022 160.78 101.38 159.346 101.38C157.015 101.38 155.601 100.584 154.485 99.5278C152.952 98.0538 152.354 96.4005 152.354 94.4484C152.354 92.0381 153.35 90.3051 154.485 89.2494C155.82 87.9944 157.473 87.4964 159.366 87.4964C160.302 87.4964 161.417 87.6558 162.632 88.3131V91.3409C161.417 89.9465 159.903 89.8469 159.425 89.8469C156.756 89.8469 155.023 92.0381 155.023 94.4882C155.023 97.4363 157.294 99.0299 159.525 99.0299C160.76 99.0299 161.856 98.492 162.632 97.5757ZM169.993 87.7952V92.9345H175.61V87.7952H178.2V101.082H175.61V95.1655H169.993V101.082H167.403V87.7952H169.993ZM190.664 87.7952H193.951C194.688 87.7952 196.122 87.7952 197.198 88.6319C197.975 89.2294 198.433 90.2653 198.433 91.3807C198.433 93.0938 197.297 93.791 196.939 93.9902C197.815 94.1296 198.333 94.5081 198.672 94.8268C199.469 95.5838 199.628 96.6196 199.628 97.3168C199.628 98.0936 199.409 99.1892 198.493 100.006C197.497 100.882 196.282 101.082 195.126 101.082H190.664V87.7952ZM193.254 89.9067V93.3129H193.991C194.389 93.3129 196.003 93.2731 196.003 91.5799C196.003 90.3649 195.066 89.9067 194.011 89.9067H193.254ZM193.254 95.3049V98.9701H194.369C194.847 98.9701 195.564 98.9502 196.142 98.6115C196.78 98.2331 196.959 97.5957 196.959 97.0777C196.959 96.6594 196.819 95.9423 195.983 95.5639C195.425 95.3049 194.768 95.3049 194.21 95.3049H193.254ZM210.869 87.4964C215.052 87.4964 217.96 90.4047 217.96 94.4484C217.96 98.492 215.052 101.38 210.869 101.38C206.686 101.38 203.778 98.492 203.778 94.4484C203.778 90.4047 206.686 87.4964 210.869 87.4964ZM210.869 99.0299C213.458 99.0299 215.291 97.1375 215.291 94.4484C215.291 91.7592 213.458 89.8469 210.869 89.8469C208.279 89.8469 206.447 91.7592 206.447 94.4484C206.447 97.1375 208.279 99.0299 210.869 99.0299ZM220.371 101.082L225.072 94.0699L221.108 87.7952H224.215L226.546 91.9186L228.996 87.7952H232.104L228.02 94.0699L232.562 101.082H229.454L226.546 96.2212L223.478 101.082H220.371Z" fill="#F7564E"/>
<path d="M236.592 71.3485C231.15 71.3485 225.204 70.1392 222.383 68.93C219.662 67.7207 216.941 66.209 216.941 65.5036C216.941 63.992 220.165 57.7439 221.173 57.7439C221.979 57.7439 226.414 60.3641 230.545 60.3641C235.282 60.3641 237.902 56.4339 237.902 52.6044C237.902 48.2711 235.282 45.4494 230.848 42.1238C227.119 39.2014 224.902 37.4882 221.677 34.6665L221.375 34.8681C221.576 35.775 221.677 37.589 221.677 38.496C221.677 44.744 219.46 52.3021 216.941 56.6354C216.638 57.1393 216.437 57.3408 216.135 57.3408C215.026 57.3408 209.08 54.3176 209.08 53.2091C209.08 52.806 209.685 51.6975 209.987 50.992C211.801 47.3641 213.313 41.2169 213.313 34.465C213.313 30.5347 212.708 26.3022 212.708 25.2945C212.708 23.4805 220.569 18.9456 222.584 18.9456C223.189 18.9456 223.39 19.0464 223.894 19.6511C226.817 23.0774 232.863 28.7208 238.708 33.1549C245.46 38.1936 250.801 42.5269 250.801 50.992C250.801 55.5269 248.685 59.8602 246.367 61.8757L246.568 62.2788C251.809 60.3641 257.956 55.1238 260.677 47.9688C260.879 47.4649 261.08 47.1626 261.483 47.1626C262.592 47.1626 268.437 49.8835 268.437 50.8913C268.437 51.2944 268.235 51.899 268.134 52.2013C263.801 65.8059 252.01 71.3485 236.592 71.3485Z" fill="#F7564E"/>
<path d="M192.893 23.1782C191.986 23.1782 189.971 21.062 189.971 20.4573C189.971 20.155 190.071 19.9534 190.374 19.5503C192.389 17.7364 194.203 15.7209 195.009 13.3023C190.978 13.3023 188.157 10.8837 188.157 6.55039C188.157 2.31785 191.583 3.05176e-05 195.211 3.05176e-05C199.746 3.05176e-05 202.265 3.3256 202.265 8.36434C202.265 16.6279 194.002 23.1782 192.893 23.1782Z" fill="#F7564E"/>
<path d="M160.637 71.3505C147.738 71.3505 136.754 61.9785 136.754 47.4669C136.754 34.9708 145.622 23.6841 158.42 23.6841C167.288 23.6841 173.738 29.6298 173.738 37.6918C173.738 48.777 165.172 54.4204 154.691 54.4204C153.281 54.4204 151.265 54.3196 150.358 54.2188C151.467 58.149 155.699 61.2731 161.746 61.2731C167.691 61.2731 172.126 57.5444 174.343 54.8235C174.746 54.3196 174.947 54.118 175.35 54.118C176.156 54.118 181.296 58.3506 181.296 59.5599C181.296 60.0638 181.094 60.4669 180.893 60.7692C177.467 66.211 171.219 71.3505 160.637 71.3505ZM151.366 45.8545C157.211 45.8545 163.459 43.4359 163.459 37.591C163.459 34.6685 161.443 32.8546 158.319 32.8546C152.374 32.8546 148.343 38.6995 148.343 44.8468V45.653C149.048 45.7537 149.854 45.8545 151.366 45.8545Z" fill="#F7564E"/>
<path d="M139.603 47.1621C140.51 47.1621 146.456 49.7823 146.456 50.8908C146.456 51.2939 146.254 51.8985 146.153 52.2009C143.634 60.2628 136.378 71.3481 122.27 71.3481C111.285 71.3481 103.828 64.0923 103.828 53.2086V35.1699C102.82 35.1699 101.813 35.1699 101.208 35.1699C99.6963 35.1699 98.9908 34.666 98.9908 33.1544V27.511C98.9908 26.4025 99.4947 25.5963 100.805 25.5963H103.828C103.828 21.3638 103.828 17.3328 103.828 14.108C103.828 12.3948 104.735 11.3871 106.247 11.3871H113.906C115.518 11.3871 116.324 12.3948 116.324 14.108V25.7979C119.549 25.6971 123.378 25.5963 125.797 25.5963C126.704 25.5963 127.409 26.1002 127.409 27.2087V33.356C127.409 34.7668 126.805 35.1699 125.696 35.1699C123.378 35.1699 119.65 35.0691 116.324 35.0691V48.1699C116.324 55.8287 118.34 60.3636 124.89 60.3636C132.247 60.3636 136.882 52.7047 138.696 47.8675C138.898 47.3637 139.2 47.1621 139.603 47.1621Z" fill="#F7564E"/>
<path d="M82.7303 71.3505C68.0171 71.3505 57.335 61.9785 57.335 47.4669C57.335 34.5677 66.2032 23.6841 79.0016 23.6841C87.8698 23.6841 94.3194 29.6298 94.3194 37.6918C94.3194 49.1801 84.9473 54.4204 73.8621 54.4204C72.7536 54.4204 71.645 54.3196 70.7381 54.2188C72.552 58.3506 77.5908 61.2731 84.645 61.2731C94.7225 61.2731 101.071 55.4281 103.994 47.87C104.195 47.3661 104.498 47.1646 104.901 47.1646C105.808 47.1646 111.653 49.8855 111.653 50.994C111.653 51.2964 111.552 51.6995 111.451 52.0018C108.025 63.5909 97.7457 71.3505 82.7303 71.3505ZM71.8466 45.8545C78.1954 45.8545 84.0403 43.2344 84.0403 37.591C84.0403 34.7693 82.1256 32.8546 78.9008 32.8546C73.0559 32.8546 68.8233 38.9011 68.9241 44.9475V45.653C69.6295 45.7537 70.5365 45.8545 71.8466 45.8545Z" fill="#F7564E"/>
<path d="M2.62015 101.855C0.906973 101.855 0 101.048 0 98.8314V28.2189C0 26.1027 0.604649 24.9941 2.72092 24.9941H9.97671C11.7907 24.9941 12.4961 26.1026 12.4961 27.6143C12.4961 28.622 11.9922 33.0561 11.7907 35.1724L12.1938 35.2732C15.9224 29.2267 21.0619 23.6841 30.434 23.6841C42.8293 23.6841 49.5812 34.3662 49.5812 45.0483C49.5812 52.808 45.8525 59.4591 41.7208 61.9785L41.8215 62.4824C51.6975 60.9707 56.837 54.0173 59.2556 48.0716C59.4571 47.4669 59.6587 47.1646 60.0618 47.1646C61.0695 47.1646 67.0152 49.9863 67.0152 50.994C67.0152 51.2964 66.8137 52.0018 66.7129 52.3041C62.6819 64.5986 50.9921 71.3505 33.3565 71.3505C29.7286 71.3505 24.3875 70.6451 21.5658 69.8389C18.341 68.9319 14.9147 67.3195 14.9147 66.3118C14.9147 64.901 17.5348 58.5521 18.6433 58.5521C19.5503 58.5521 21.7674 60.3661 25.0929 60.3661C31.9456 60.3661 36.4805 53.6142 36.4805 45.7537C36.4805 39.4049 33.3565 34.6685 27.8138 34.6685C17.3333 34.6685 12.4961 50.6917 12.4961 64.5986V99.1338C12.4961 100.948 11.6899 101.855 10.0775 101.855H2.62015Z" fill="#F7564E"/>
</svg>
