<svg width="893" height="317" viewBox="0 0 893 317" fill="none" xmlns="http://www.w3.org/2000/svg">
<path d="M601.494 272.941H514.78V60.8009H640.86C652.605 60.8009 663.341 62.9131 673.068 67.1375C682.978 71.3619 690.87 78.1578 696.742 87.525C702.615 96.8922 705.551 109.382 705.551 124.994C705.551 129.402 705.184 134.177 704.45 139.32C703.9 144.463 702.523 149.606 700.321 154.748C698.119 159.708 694.724 164.208 690.135 168.248C685.731 172.105 679.675 175.136 671.967 177.34L715.462 272.941H618.837L603.972 216.186H601.494V272.941ZM620.489 128.575H594.062V143.453H621.315C622.783 143.453 624.343 142.994 625.994 142.075C627.83 141.157 628.747 139.228 628.747 136.29C628.747 133.167 627.738 131.147 625.719 130.228C623.7 129.126 621.957 128.575 620.489 128.575Z" fill="#F6F5F0"/>
<path d="M808.763 189.738V201.034H893V272.941H722.049V60.8009H888.045V122.79H808.763V134.086H880.612V189.738H808.763Z" fill="#F6F5F0"/>
<path d="M312.592 317L357.003 164.633L300.506 89.1259L387.021 115.372L447.582 0L462.818 126.767L564.222 166.242L473.599 196.291L519.143 306.027L406.13 234.924L312.592 317Z" fill="#E47448"/>
<path d="M168.473 60.8009V128.3H86.7143V139.596H165.996V199.656H86.7143V272.941H0V60.8009H168.473Z" fill="#F6F5F0"/>
<path d="M266.563 60.8009V188.636H350.799V272.941H179.848V60.8009H266.563Z" fill="#F6F5F0"/>
</svg>
